<svg xmlns="http://www.w3.org/2000/svg" width="100.027" height="100.027" viewBox="0 0 100.027 100.027">
  <path id="Linkedin-Icon-09uje" d="M138.338,0A50.013,50.013,0,1,0,188.35,50.015,50.019,50.019,0,0,0,138.338,0M123.8,75.606h-12.18V38.96H123.8Zm-6.09-41.648h-.08c-4.09,0-6.732-2.814-6.732-6.329,0-3.6,2.725-6.333,6.892-6.333s6.732,2.735,6.809,6.333c0,3.515-2.642,6.329-6.889,6.329m50.009,41.648h-12.18V56c0-4.928-1.764-8.29-6.17-8.29a6.671,6.671,0,0,0-6.25,4.455,8.336,8.336,0,0,0-.4,2.974V75.606h-12.18s.157-33.208,0-36.646h12.18v5.19A12.085,12.085,0,0,1,153.7,38.1c8.013,0,14.023,5.239,14.023,16.493Z" transform="translate(-88.323)" fill="#0a63bc"/>
</svg>
